ply
format ascii 1.0
comment VCGLIB generated
element vertex 95
property float x
property float y
property float z
element face 124
property list uchar int vertex_indices
end_header
-0.6394 27.0742 114.386 
-0.6395 35.2875 117.3787 
28.3082 28.0079 103.3713 
30.611 36.1792 104.9342 
38.1848 30.9114 78.8088 
40.7552 39.0731 80.0413 
47.0978 31.3306 36.6349 
49.8702 35.0465 37.1499 
46.3743 31.2815 37.6382 
42.0853 20.3604 63.3254 
39.5327 28.3732 65.3318 
28.455 12.1245 85.3284 
26.1703 20.2721 87.0334 
-0.6395 8.679 99.3209 
-0.6394 17.4109 99.7216 
43.61 34.9152 38.5948 
-0.6395 81.8199 -76.2194 
-0.6392 81.8037 -103.0297 
22.055 92.3745 -105.2875 
31.8103 92.9487 -83.9929 
50.9912 88.6014 -115.0759 
57.3617 86.1055 75.8123 
53.5153 34.1144 32.4813 
34.7225 35.2828 106.7141 
-0.6394 33.3944 121.0852 
-0.6394 86.3177 128.3704 
36.2198 86.2118 118.6162 
54.5001 76.0594 22.1685 
12.8383 43.7142 -64.2874 
38.9188 110.1146 12.032 
-0.6393 119.7876 7.1028 
-0.6393 59.5359 -58.6458 
-0.6394 134.3633 61.9994 
-0.6395 126.3011 99.9919 
37.5693 115.5918 94.5071 
-0.6393 13.7738 -26.5275 
45.277 18.7006 33.4351 
-0.6392 30.3643 -68.4825 
-0.6395 13.7406 33.7419 
-0.6394 34.2534 32.6331 
37.5056 16.0859 85.0095 
-0.6394 8.775 103.1018 
37.5056 7.3289 75.8059 
-0.6394 -0.3704 93.2841 
-0.6394 81.7988 -86.0059 
-0.6395 55.5214 -90.0238 
85.8403 24.0092 -7.3999 
57.1318 30.1812 -4.449 
69.8984 25.5382 17.3892 
46.6744 46.7909 20.3402 
66.2573 35.4 6.4701 
48.7933 28.9449 33.3469 
33.5861 34.4755 7.3337 
-29.587 28.0079 103.3717 
-31.8898 36.1792 104.9343 
-39.4636 30.9114 78.8091 
-42.0341 39.073 80.0414 
-48.3767 31.3306 36.635 
-51.1492 35.0465 37.15 
-47.6532 31.2815 37.6382 
-40.8116 28.3732 65.332 
-43.364 20.3604 63.3257 
-29.7337 12.1245 85.3285 
-27.449 20.272 87.0336 
-44.8889 34.915 38.5951 
-23.3338 92.3745 -105.2874 
-33.089 92.9487 -83.9927 
-52.2699 88.6014 -115.0759 
-58.6405 86.1053 75.8124 
-36.0013 35.2827 106.7142 
-54.7941 34.1143 32.4816 
-37.4988 86.2115 118.6165 
-55.7789 76.0592 22.1687 
-14.117 43.7142 -64.2872 
-40.1978 110.1144 12.0321 
-38.8481 115.5916 94.5073 
-46.5558 18.7006 33.4352 
-38.7844 16.0859 85.0099 
-38.7846 7.3286 75.806 
-87.1191 24.009 -7.3998 
-71.1771 25.5381 17.3894 
-58.4106 30.1812 -4.4489 
-47.9532 46.7909 20.3403 
-50.0719 28.9448 33.3469 
-67.5363 35.3999 6.4703 
-34.8649 34.4755 7.3337 
-0.6393 33.3944 121.6088 
-0.6393 86.3177 128.894 
36.2198 86.2118 119.1399 
34.7224 35.2831 107.2378 
-0.6396 126.3014 100.5155 
37.5692 115.5918 95.0309 
-36.0012 35.2828 107.2379 
-37.4988 86.2118 119.1401 
-38.8481 115.5914 95.031 
3 2 1 0 
3 3 1 2 
3 4 3 2 
3 5 3 4 
3 6 5 4 
3 7 5 6 
3 10 9 8 
3 11 9 10 
3 12 11 10 
3 13 11 12 
3 14 13 12 
3 15 10 8 
3 18 17 16 
3 19 18 16 
3 20 18 19 
3 23 22 21 
3 23 26 25 
3 23 25 24 
3 22 27 21 
3 27 22 28 
3 31 30 29 
3 29 27 28 
3 28 31 29 
3 32 29 30 
3 34 33 25 
3 34 25 26 
3 21 27 29 
3 21 34 26 
3 29 34 21 
3 32 33 34 
3 34 29 32 
3 21 26 23 
3 36 35 28 
3 35 37 28 
3 36 38 35 
3 39 22 23 
3 39 23 24 
3 41 40 22 
3 41 22 39 
3 43 42 40 
3 43 40 41 
3 38 42 43 
3 40 42 22 
3 38 36 42 
3 36 22 42 
3 28 22 36 
3 44 31 28 
3 45 44 28 
3 28 37 45 
3 48 47 46 
3 51 48 50 
3 51 50 49 
3 50 47 52 
3 50 52 49 
3 52 47 48 
3 52 48 51 
3 48 46 50 
3 50 46 47 
3 1 53 0 
3 1 54 53 
3 54 55 53 
3 54 56 55 
3 56 57 55 
3 56 58 57 
3 61 60 59 
3 61 62 60 
3 62 63 60 
3 62 13 63 
3 13 14 63 
3 60 64 59 
3 17 65 16 
3 65 66 16 
3 65 67 66 
3 70 69 68 
3 25 71 69 
3 25 69 24 
3 72 70 68 
3 70 72 73 
3 30 31 74 
3 72 74 73 
3 31 73 74 
3 74 32 30 
3 25 33 75 
3 25 75 71 
3 72 68 74 
3 75 68 71 
3 75 74 68 
3 33 32 75 
3 74 75 32 
3 71 68 69 
3 35 76 73 
3 37 35 73 
3 38 76 35 
3 69 70 39 
3 69 39 24 
3 70 77 41 
3 70 41 39 
3 77 78 43 
3 77 43 41 
3 78 38 43 
3 78 77 70 
3 76 38 78 
3 70 76 78 
3 70 73 76 
3 31 44 73 
3 44 45 73 
3 37 73 45 
3 81 80 79 
3 84 80 83 
3 84 83 82 
3 85 81 84 
3 85 84 82 
3 80 81 85 
3 80 85 83 
3 79 80 84 
3 79 84 81 
3 89 88 87 
3 89 87 86 
3 91 90 87 
3 91 87 88 
3 87 93 92 
3 87 92 86 
3 87 90 94 
3 87 94 93 
